<svg width="60" height="60" viewBox="0 0 60 60" fill="none" xmlns="http://www.w3.org/2000/svg">
<mask id="mask0_2_127" style="mask-type:alpha" maskUnits="userSpaceOnUse" x="0" y="0" width="60" height="60">
<rect width="60" height="60" fill="#D9D9D9"/>
</mask>
<g mask="url(#mask0_2_127)">
<path d="M46.6875 24.6106L35.5 13.4231L37.5 11.3606C37.9263 10.9343 38.4199 10.7131 38.9808 10.6971C39.5417 10.6811 40.0353 10.8863 40.4616 11.3125L48.702 19.601C49.1282 20.0273 49.3414 20.5104 49.3414 21.0505C49.3414 21.5906 49.1282 22.0738 48.702 22.5L46.6875 24.6106ZM21.9952 49.2549C21.8926 49.3574 21.6546 49.5081 21.2813 49.7068C20.9078 49.9055 20.524 49.8078 20.1298 49.4135L11.2452 40.577C10.8189 40.1507 10.6058 39.6491 10.6058 39.0722C10.6058 38.4953 10.8189 37.9936 11.2452 37.5674L13.4856 35.3895L24.6731 46.577L21.9952 49.2549ZM29.9134 49.4039C29.7179 49.5994 29.476 49.6972 29.1875 49.6972C28.8991 49.6972 28.6571 49.5994 28.4616 49.4039L10.7211 31.6635C10.5256 31.468 10.4279 31.226 10.4279 30.9375C10.4279 30.6491 10.5256 30.4071 10.7211 30.2116L15.6154 25.3029C15.8109 25.1074 16.0449 25.0097 16.3173 25.0097C16.5897 25.0097 16.8237 25.1074 17.0193 25.3029L22.2404 30.5722L30.5866 22.1635L25.3798 17.0049C25.1427 16.8093 25.0241 16.5777 25.0241 16.3101C25.0241 16.0425 25.1427 15.7901 25.3798 15.5529L30.2741 10.5962C30.4696 10.4007 30.7116 10.3029 31 10.3029C31.2885 10.3029 31.5304 10.4007 31.7259 10.5962L49.4664 28.3366C49.7036 28.5321 49.8221 28.7741 49.8221 29.0625C49.8221 29.351 49.7036 29.6138 49.4664 29.851L44.5721 34.7452C44.3766 34.9407 44.1347 35.0385 43.8462 35.0385C43.5577 35.0385 43.3157 34.9407 43.1202 34.7452L37.8366 29.4135L29.4279 37.8222L34.8221 43.1058C35.0176 43.3013 35.105 43.5353 35.0841 43.8077C35.0633 44.0802 34.9551 44.3142 34.7596 44.5097L29.9134 49.4039Z" fill="#7F5FFE"/>
</g>
</svg>
