<svg width="24" height="24" viewBox="0 0 24 24" fill="none" xmlns="http://www.w3.org/2000/svg">
<circle cx="12" cy="12" r="10" fill="#7F5FFE"/>
<mask id="mask0_4_87" style="mask-type:alpha" maskUnits="userSpaceOnUse" x="0" y="0" width="24" height="24">
<rect width="24" height="24" fill="#D9D9D9"/>
</mask>
<g mask="url(#mask0_4_87)">
<path d="M10 13.9558L16.0731 7.8731C16.211 7.73464 16.3865 7.66541 16.5996 7.66541C16.8127 7.66541 16.9885 7.7344 17.1269 7.8724C17.2654 8.0104 17.3346 8.18605 17.3346 8.39933C17.3346 8.6126 17.2654 8.78845 17.1269 8.9269L10.6327 15.4115C10.4519 15.5923 10.241 15.6827 10 15.6827C9.75899 15.6827 9.5481 15.5923 9.36733 15.4115L6.87311 12.9269C6.73464 12.789 6.66541 12.6135 6.66541 12.4004C6.66541 12.1873 6.73441 12.0116 6.87241 11.8731C7.01041 11.7346 7.18605 11.6654 7.39933 11.6654C7.6126 11.6654 7.78846 11.7346 7.92691 11.8731L10 13.9558Z" fill="white"/>
</g>
</svg>
